<svg width="23" height="44" viewBox="0 0 23 44" fill="none" xmlns="http://www.w3.org/2000/svg">
<path d="M0.477417 20.9401L20.4774 0.940059C20.7618 0.675098 21.1379 0.530857 21.5265 0.537712C21.9151 0.544567 22.2858 0.701992 22.5607 0.976818C22.8355 1.25164 22.9929 1.62241 22.9998 2.01102C23.0066 2.39962 22.8624 2.77571 22.5974 3.06006L3.65992 22.0001L22.5974 40.9401C22.8624 41.2244 23.0066 41.6005 22.9998 41.9891C22.9929 42.3777 22.8355 42.7485 22.5607 43.0233C22.2858 43.2981 21.9151 43.4556 21.5265 43.4624C21.1379 43.4693 20.7618 43.325 20.4774 43.0601L0.477417 23.0601C0.196516 22.7788 0.0387382 22.3976 0.0387382 22.0001C0.0387383 21.6026 0.196516 21.2213 0.477417 20.9401Z" fill="#222222"/>
</svg>
