<svg width="34" height="34" viewBox="0 0 34 34" fill="none" xmlns="http://www.w3.org/2000/svg">
<path d="M33.7776 6.76106C33.6873 6.65265 33.5742 6.56543 33.4465 6.50557C33.3187 6.4457 33.1793 6.41467 33.0382 6.41467H6.89633L6.06717 1.84422C5.97322 1.32663 5.7005 0.858454 5.29659 0.5214C4.89267 0.184345 4.38322 -0.000188575 3.85713 1.44607e-07H0.962279C0.707066 1.44607e-07 0.462307 0.101374 0.281845 0.281822C0.101383 0.462269 0 0.707009 0 0.9622C0 1.21739 0.101383 1.46213 0.281845 1.64258C0.462307 1.82303 0.707066 1.9244 0.962279 1.9244H3.84911C3.92507 1.92316 3.99899 1.94892 4.05773 1.99708C4.11647 2.04524 4.15621 2.11268 4.16987 2.1874L8.26116 24.6868C8.39094 25.4046 8.74067 26.0642 9.26193 26.5744C8.63249 27.0778 8.16245 27.7528 7.90869 28.5178C7.65493 29.2827 7.62834 30.1049 7.83212 30.8846C8.0359 31.6644 8.46132 32.3684 9.05691 32.9114C9.6525 33.4545 10.3927 33.8133 11.188 33.9444C11.9833 34.0756 12.7995 33.9734 13.5379 33.6504C14.2764 33.3273 14.9054 32.7972 15.3488 32.1242C15.7922 31.4511 16.031 30.664 16.0363 29.8581C16.0416 29.0521 15.8133 28.2619 15.3788 27.5831H23.7538C23.2552 28.3634 23.0305 29.2875 23.1152 30.2096C23.1999 31.1318 23.5892 31.9995 24.2217 32.6759C24.8542 33.3523 25.6939 33.7989 26.6084 33.9453C27.5228 34.0917 28.46 33.9295 29.2721 33.4844C30.0841 33.0392 30.7249 32.3365 31.0933 31.4869C31.4617 30.6373 31.5368 29.6892 31.3067 28.7922C31.0766 27.8952 30.5544 27.1004 29.8225 26.533C29.0906 25.9656 28.1907 25.658 27.2646 25.6587H11.735C11.3594 25.6587 10.9957 25.527 10.7073 25.2864C10.4189 25.0457 10.2241 24.7116 10.1569 24.3421L9.57948 21.1684H28.5636C29.39 21.1686 30.1902 20.8788 30.8247 20.3495C31.4592 19.8203 31.8879 19.0851 32.0359 18.2722L33.9845 7.54846C34.0096 7.41007 34.0042 7.26784 33.9684 7.1318C33.9327 6.99576 33.8675 6.86921 33.7776 6.76106ZM14.1134 29.8282C14.1134 30.2722 13.9817 30.7063 13.735 31.0755C13.4883 31.4447 13.1376 31.7325 12.7273 31.9024C12.3171 32.0724 11.8656 32.1168 11.4301 32.0302C10.9945 31.9436 10.5944 31.7297 10.2804 31.4157C9.96641 31.1018 9.75257 30.7017 9.66593 30.2662C9.57929 29.8307 9.62376 29.3793 9.7937 28.969C9.96364 28.5588 10.2514 28.2081 10.6207 27.9614C10.9899 27.7147 11.424 27.5831 11.8681 27.5831C12.4636 27.5831 13.0347 27.8196 13.4558 28.2407C13.8769 28.6617 14.1134 29.2328 14.1134 29.8282ZM29.5099 29.8282C29.5099 30.2722 29.3782 30.7063 29.1315 31.0755C28.8848 31.4447 28.5341 31.7325 28.1238 31.9024C27.7135 32.0724 27.2621 32.1168 26.8265 32.0302C26.391 31.9436 25.9909 31.7297 25.6769 31.4157C25.3629 31.1018 25.149 30.7017 25.0624 30.2662C24.9758 29.8307 25.0202 29.3793 25.1902 28.969C25.3601 28.5588 25.6479 28.2081 26.0171 27.9614C26.3864 27.7147 26.8205 27.5831 27.2646 27.5831C27.8601 27.5831 28.4312 27.8196 28.8522 28.2407C29.2733 28.6617 29.5099 29.2328 29.5099 29.8282ZM30.1418 17.9274C30.0745 18.2969 29.8797 18.6311 29.5913 18.8717C29.3029 19.1123 28.9392 19.2441 28.5636 19.244H9.22986L7.24756 8.33907H31.8851L30.1418 17.9274Z" fill="#222222"/>
</svg>
