<svg width="170" height="56" viewBox="0 0 170 56" fill="none" xmlns="http://www.w3.org/2000/svg">
<g clip-path="url(#clip0_19_837)">
<path d="M0.642578 38.0513V11.1196H7.77824V14.1177C8.64632 12.946 9.68803 12.05 10.9033 11.4297C12.1187 10.8094 13.4902 10.4993 15.0181 10.4993C16.3376 10.5337 17.3272 10.7405 17.9869 11.1196V17.3227C17.4661 17.0814 16.8931 16.9091 16.2681 16.8057C15.6431 16.6679 15.0007 16.599 14.341 16.599C12.952 16.599 11.6846 16.9436 10.5387 17.6328C9.39288 18.322 8.47271 19.3042 7.77824 20.5793V38.0513H0.642578ZM34.1175 38.5682C31.409 38.5682 28.9437 37.9479 26.7214 36.7073C24.5338 35.4667 22.7976 33.7953 21.5129 31.6931C20.2281 29.591 19.5857 27.2303 19.5857 24.6113C19.5857 21.9922 20.1934 19.6316 21.4087 17.5294C22.6587 15.4273 24.3428 13.7559 26.4609 12.5153C28.5791 11.2747 30.9403 10.6543 33.5445 10.6543C36.1488 10.6543 38.4579 11.2919 40.4718 12.567C42.4858 13.842 44.0657 15.5651 45.2116 17.7362C46.3922 19.9073 46.9825 22.3713 46.9825 25.1282V26.9891H26.8776C27.1901 28.0574 27.6936 29.0223 28.3881 29.8839C29.1173 30.7454 30.0027 31.4174 31.0444 31.8999C32.1209 32.3823 33.2667 32.6236 34.4821 32.6236C35.6974 32.6236 36.8085 32.434 37.8155 32.055C38.8572 31.6759 39.7427 31.1417 40.4718 30.4525L45.1595 34.6913C43.4928 36.0353 41.774 37.0174 40.0031 37.6377C38.2669 38.258 36.305 38.5682 34.1175 38.5682ZM26.7735 21.9233H39.951C39.7079 20.855 39.2565 19.9245 38.5968 19.1319C37.9718 18.3048 37.2078 17.6673 36.305 17.2193C35.4369 16.7368 34.4647 16.4956 33.3883 16.4956C32.2771 16.4956 31.2701 16.7196 30.3673 17.1676C29.4992 17.6156 28.7527 18.2531 28.1277 19.0802C27.5027 19.8728 27.0512 20.8205 26.7735 21.9233ZM51.3544 38.0513V1.86666L58.49 0.677734V22.4402L70.2095 11.1196H78.2827L65.4694 23.474L79.0639 38.0513H69.9488L58.49 25.7485V38.0513H51.3544ZM88.8408 38.5165C86.8962 38.5165 85.1774 38.1719 83.6843 37.4827C82.1912 36.759 81.028 35.7768 80.1946 34.5362C79.3613 33.2956 78.9446 31.8654 78.9446 30.2457C78.9446 27.6611 79.9168 25.6623 81.8613 24.2494C83.8406 22.802 86.549 22.0783 89.9866 22.0783C92.3478 22.0783 94.5701 22.4402 96.6535 23.1639V21.1996C96.6535 19.6488 96.1674 18.4771 95.1951 17.6845C94.2229 16.8919 92.7992 16.4956 90.9242 16.4956C89.7783 16.4956 88.5456 16.6851 87.2261 17.0642C85.9066 17.4088 84.3788 17.9602 82.6426 18.7183L80.0384 13.4974C82.1912 12.5325 84.2399 11.8088 86.1844 11.3263C88.1636 10.8439 90.1429 10.6027 92.1221 10.6027C95.7681 10.6027 98.598 11.4814 100.612 13.239C102.661 14.962 103.685 17.4088 103.685 20.5793V38.0513H96.6535V36.1387C95.5424 36.9657 94.3444 37.5688 93.0597 37.9479C91.7749 38.327 90.3686 38.5165 88.8408 38.5165ZM85.7156 30.0907C85.7156 31.1245 86.167 31.9516 87.0699 32.5719C87.9727 33.1577 89.1706 33.4507 90.6637 33.4507C91.8443 33.4507 92.9381 33.3128 93.9451 33.0371C94.9521 32.727 95.8549 32.279 96.6535 31.6931V27.7645C95.7854 27.4199 94.8826 27.1614 93.9451 26.9891C93.0076 26.8168 92.0006 26.7307 90.9242 26.7307C89.2922 26.7307 88.0074 27.0408 87.0699 27.6611C86.167 28.247 85.7156 29.0568 85.7156 30.0907ZM121.638 38.4131C119.068 38.4131 116.742 37.7928 114.658 36.5522C112.575 35.3116 110.908 33.6574 109.658 31.5897C108.443 29.4876 107.835 27.1442 107.835 24.5596C107.835 21.975 108.443 19.6488 109.658 17.5811C110.908 15.479 112.592 13.8248 114.71 12.6187C116.829 11.378 119.207 10.7577 121.846 10.7577C123.2 10.7577 124.502 10.9473 125.752 11.3263C127.002 11.671 128.166 12.1879 129.242 12.8771V1.86666L136.378 0.677734V38.0513H129.346V35.8285C127.124 37.5516 124.554 38.4131 121.638 38.4131ZM122.784 32.3651C124.103 32.3651 125.301 32.1411 126.377 31.6931C127.489 31.2451 128.444 30.6076 129.242 29.7805V19.287C128.444 18.4943 127.489 17.874 126.377 17.426C125.266 16.978 124.068 16.754 122.784 16.754C121.29 16.754 119.936 17.0987 118.721 17.7879C117.54 18.4427 116.603 19.3731 115.908 20.5793C115.214 21.751 114.867 23.0777 114.867 24.5596C114.867 26.0414 115.214 27.3682 115.908 28.5399C116.603 29.7116 117.54 30.642 118.721 31.3313C119.936 32.0205 121.29 32.3651 122.784 32.3651ZM155.224 38.5682C152.516 38.5682 150.068 37.9479 147.88 36.7073C145.692 35.4667 143.956 33.7953 142.671 31.6931C141.387 29.591 140.744 27.2303 140.744 24.6113C140.744 21.9922 141.369 19.6316 142.619 17.5294C143.904 15.3928 145.64 13.7042 147.828 12.4636C150.05 11.223 152.516 10.6027 155.224 10.6027C157.932 10.6027 160.38 11.223 162.568 12.4636C164.79 13.7042 166.526 15.3928 167.776 17.5294C169.061 19.6316 169.704 21.9922 169.704 24.6113C169.704 27.2303 169.061 29.591 167.776 31.6931C166.526 33.7953 164.808 35.4667 162.62 36.7073C160.432 37.9479 157.967 38.5682 155.224 38.5682ZM155.224 32.4168C156.648 32.4168 157.915 32.0722 159.026 31.383C160.172 30.6937 161.075 29.7633 161.735 28.5916C162.429 27.3854 162.776 26.0587 162.776 24.6113C162.776 23.1294 162.429 21.8027 161.735 20.631C161.075 19.4593 160.172 18.5288 159.026 17.8396C157.915 17.1159 156.648 16.754 155.224 16.754C153.835 16.754 152.568 17.1159 151.422 17.8396C150.276 18.5288 149.373 19.4593 148.713 20.631C148.054 21.8027 147.724 23.1294 147.724 24.6113C147.724 26.0587 148.054 27.3854 148.713 28.5916C149.373 29.7633 150.276 30.6937 151.422 31.383C152.568 32.0722 153.835 32.4168 155.224 32.4168Z" fill="#0658F6"/>
<path d="M2.17007 55.641C2.17007 55.641 1.80837 50.6154 1.08496 48.8205H168.191L2.17007 55.641Z" fill="#0658F6"/>
</g>
<defs>
<clipPath id="clip0_19_837">
<rect width="170" height="56" fill="white"/>
</clipPath>
</defs>
</svg>
