<svg width="50" height="50" viewBox="0 0 50 50" fill="none" xmlns="http://www.w3.org/2000/svg">
<path d="M37.5 39C33.6667 42.5 23.3 47.4 12.5 39C16.1667 33.3333 26.3 25.4 37.5 39Z" fill="#0658F6"/>
<path d="M25 5.07812C21.0598 5.07812 17.2081 6.24652 13.932 8.43557C10.6559 10.6246 8.10244 13.736 6.5946 17.3762C5.08676 21.0165 4.69224 25.0221 5.46093 28.8866C6.22962 32.751 8.12699 36.3008 10.9131 39.0869C13.6992 41.873 17.249 43.7704 21.1134 44.5391C24.9779 45.3078 28.9835 44.9133 32.6238 43.4054C36.264 41.8976 39.3754 39.3441 41.5644 36.068C43.7535 32.7919 44.9219 28.9402 44.9219 25C44.9157 19.7183 42.8148 14.6547 39.0801 10.92C35.3453 7.18523 30.2817 5.08433 25 5.07812ZM13.9531 38.6719C15.0992 36.7661 16.7188 35.1893 18.6545 34.0946C20.5902 32.9999 22.7762 32.4247 25 32.4247C27.2238 32.4247 29.4098 32.9999 31.3455 34.0946C33.2812 35.1893 34.9008 36.7661 36.0469 38.6719C32.9226 41.2054 29.0224 42.588 25 42.588C20.9776 42.588 17.0774 41.2054 13.9531 38.6719ZM18.3594 23.4375C18.3594 22.1241 18.7488 20.8402 19.4785 19.7482C20.2082 18.6561 21.2453 17.805 22.4588 17.3024C23.6722 16.7997 25.0074 16.6682 26.2955 16.9245C27.5837 17.1807 28.7669 17.8132 29.6956 18.7419C30.6243 19.6706 31.2568 20.8538 31.513 22.142C31.7693 23.4301 31.6378 24.7653 31.1351 25.9788C30.6325 27.1922 29.7814 28.2293 28.6893 28.959C27.5973 29.6887 26.3134 30.0781 25 30.0781C23.2388 30.0781 21.5497 29.3785 20.3044 28.1331C19.059 26.8878 18.3594 25.1987 18.3594 23.4375ZM37.7949 37.0391C35.9537 34.1761 33.2014 32.0169 29.9824 30.9102C31.5876 29.841 32.8061 28.2838 33.4578 26.4687C34.1095 24.6535 34.1599 22.6768 33.6014 20.8309C33.0429 18.9849 31.9052 17.3677 30.3566 16.2182C28.808 15.0688 26.9306 14.4482 25.002 14.4482C23.0734 14.4482 21.196 15.0688 19.6473 16.2182C18.0987 17.3677 16.961 18.9849 16.4025 20.8309C15.8441 22.6768 15.8944 24.6535 16.5461 26.4687C17.1978 28.2838 18.4164 29.841 20.0215 30.9102C16.8025 32.0169 14.0503 34.1761 12.209 37.0391C9.85514 34.5412 8.28404 31.4088 7.68954 28.0285C7.09504 24.6482 7.50314 21.1678 8.8635 18.0167C10.2239 14.8656 12.4769 12.1816 15.3448 10.296C18.2126 8.41042 21.5698 7.40563 25.002 7.40563C28.4342 7.40563 31.7913 8.41042 34.6591 10.296C37.527 12.1816 39.7801 14.8656 41.1404 18.0167C42.5008 21.1678 42.9089 24.6482 42.3144 28.0285C41.7199 31.4088 40.1488 34.5412 37.7949 37.0391Z" fill="#222222"/>
</svg>
